<svg width="36" height="35" viewBox="0 0 36 35" fill="none" xmlns="http://www.w3.org/2000/svg">
<rect x="0.130005" y="-0.00976562" width="35" height="35" rx="4" fill="#2A2A2A"/>
<g clip-path="url(#clip0_1_681)">
<g clip-path="url(#clip1_1_681)">
<g clip-path="url(#clip2_1_681)">
<path d="M17.63 21.6569C17.63 19.1569 15.9633 17.4902 13.4633 17.4902" stroke="white" stroke-linecap="round" stroke-linejoin="round"/>
<path d="M21.797 21.657C21.797 16.6571 18.4637 13.3237 13.4637 13.3237" stroke="white" stroke-linecap="round" stroke-linejoin="round"/>
<path d="M13.463 21.6662L13.4724 21.6558" stroke="white" stroke-linecap="round" stroke-linejoin="round"/>
<path d="M25.13 14.9902V19.9902C25.13 22.7516 22.8914 24.9902 20.13 24.9902H15.13C12.3686 24.9902 10.13 22.7516 10.13 19.9902V14.9902C10.13 12.2288 12.3686 9.99023 15.13 9.99023H20.13C22.8914 9.99023 25.13 12.2288 25.13 14.9902Z" stroke="white" stroke-linecap="round" stroke-linejoin="round"/>
</g>
</g>
</g>
<defs>
<clipPath id="clip0_1_681">
<rect width="17" height="17" fill="white" transform="translate(9.13 8.99023)"/>
</clipPath>
<clipPath id="clip1_1_681">
<rect width="17" height="17" fill="white" transform="translate(9.13 8.99023)"/>
</clipPath>
<clipPath id="clip2_1_681">
<rect width="17" height="17" fill="white" transform="translate(9.13 8.99023)"/>
</clipPath>
</defs>
</svg>
