<svg width="36" height="35" viewBox="0 0 36 35" fill="none" xmlns="http://www.w3.org/2000/svg">
<rect x="0.130005" y="-0.00976562" width="35" height="35" rx="4" fill="#2A2A2A"/>
<g clip-path="url(#clip0_1_655)">
<g clip-path="url(#clip1_1_655)">
<g clip-path="url(#clip2_1_655)">
<path d="M16.3085 18.9579L12.344 23.4126H11.4001L15.9896 18.2543L16.2661 17.9435L16.0107 17.615L11.0145 11.1904H14.4527L17.5523 15.2203L17.9207 15.6992L18.3222 15.2478L21.9317 11.1904H22.8741L18.6315 15.9589L18.3564 16.268L18.6087 16.5961L23.8519 23.4126H20.5217L17.0767 18.9833L16.7079 18.5091L16.3085 18.9579ZM20.512 22.877L20.6622 23.0701H20.9067H22.1706H23.1859L22.5669 22.2652L14.4085 11.6577L14.2584 11.4625H14.0122H12.6559H11.6336L12.2612 12.2695L20.512 22.877Z" fill="white" stroke="white"/>
</g>
</g>
</g>
<defs>
<clipPath id="clip0_1_655">
<rect width="16" height="14" fill="white" transform="translate(9.63 10.4902)"/>
</clipPath>
<clipPath id="clip1_1_655">
<rect width="16" height="14" fill="white" transform="translate(9.63 10.4902)"/>
</clipPath>
<clipPath id="clip2_1_655">
<rect width="16" height="14" fill="white" transform="translate(9.63 10.4902)"/>
</clipPath>
</defs>
</svg>
