<svg width="36" height="35" viewBox="0 0 36 35" fill="none" xmlns="http://www.w3.org/2000/svg">
<rect x="0.130005" y="-0.00976562" width="35" height="35" rx="4" fill="#2A2A2A"/>
<g clip-path="url(#clip0_1_629)">
<g clip-path="url(#clip1_1_629)">
<g clip-path="url(#clip2_1_629)">
<path d="M23.0318 14.1324L23.0385 14.1393C23.1443 14.2462 23.2483 14.4708 23.3267 14.7376C23.3625 14.8593 23.3878 14.9712 23.404 15.0526C23.412 15.093 23.4177 15.1252 23.4212 15.1465L23.425 15.1697L23.4251 15.1707L23.4257 15.1754L23.4296 15.2093C23.4331 15.2394 23.438 15.2841 23.444 15.3412C23.4561 15.4556 23.4721 15.6198 23.4882 15.8169C23.5205 16.2124 23.5524 16.7349 23.5524 17.2529V18.2585C23.5524 18.7778 23.5205 19.3003 23.4882 19.6955C23.4721 19.8924 23.4561 20.0563 23.4441 20.1704C23.4381 20.2275 23.4331 20.2721 23.4296 20.3021L23.4257 20.3359L23.4251 20.3406L23.425 20.3417L23.4212 20.3649C23.4177 20.3862 23.412 20.4184 23.404 20.4588C23.3878 20.5402 23.3625 20.6521 23.3267 20.7738C23.2483 21.0406 23.1443 21.2652 23.0385 21.3721L23.0318 21.379C22.7106 21.7163 22.3818 21.7506 22.1055 21.7794C22.0771 21.7823 22.0492 21.7852 22.0219 21.7884C21.1128 21.853 19.9722 21.8869 19.0522 21.9046C18.5914 21.9135 18.188 21.9183 17.9 21.9208C17.756 21.9221 17.6408 21.9228 17.5618 21.9232L17.4713 21.9236L17.448 21.9237L17.4434 21.9237H17.4422L17.4362 21.9236L17.4074 21.9233L17.297 21.9222C17.2013 21.9211 17.0633 21.9195 16.8943 21.9173C16.5564 21.9128 16.0949 21.9058 15.6006 21.8956C14.6171 21.8753 13.5311 21.843 13.0149 21.7958C12.9303 21.7803 12.8464 21.7692 12.7636 21.7582C12.4387 21.7151 12.1292 21.674 11.8482 21.379L11.8426 21.3732C11.7375 21.2663 11.6339 21.0414 11.5557 20.7744C11.52 20.6525 11.4949 20.5405 11.4787 20.459C11.4706 20.4186 11.465 20.3864 11.4614 20.3651L11.4577 20.3418L11.4575 20.3407L11.457 20.336L11.453 20.3021C11.4496 20.272 11.4446 20.2273 11.4386 20.1702C11.4266 20.0558 11.4105 19.8916 11.3944 19.6945C11.3621 19.299 11.3302 18.7765 11.3302 18.2585V17.2529C11.3302 16.7353 11.3627 16.2131 11.3956 15.8177C11.412 15.6206 11.4284 15.4566 11.4407 15.3423C11.4468 15.2851 11.4519 15.2405 11.4554 15.2104L11.4594 15.1765L11.4601 15.1706L11.4604 15.1683L11.4641 15.1451C11.4676 15.1239 11.4732 15.0917 11.4811 15.0513C11.4971 14.97 11.522 14.8582 11.5575 14.7365C11.6352 14.4699 11.7387 14.2458 11.8441 14.1393L11.8508 14.1324C12.1721 13.7951 12.5009 13.7608 12.7772 13.732C12.8057 13.7291 12.8337 13.7262 12.861 13.723C13.7696 13.6572 14.9093 13.6238 15.8286 13.6071C16.289 13.5987 16.6919 13.5945 16.9797 13.5924C17.1236 13.5914 17.2386 13.5909 17.3175 13.5906L17.4079 13.5904L17.4311 13.5903H17.4369H17.4383H17.4439H17.4457H17.4515L17.4747 13.5904L17.5651 13.5906C17.6441 13.5909 17.7591 13.5914 17.9029 13.5924C18.1907 13.5945 18.5936 13.5987 19.054 13.6071C19.9734 13.6238 21.113 13.6572 22.0216 13.723C22.0489 13.7262 22.0769 13.7291 22.1055 13.732C22.3818 13.7608 22.7106 13.7951 23.0318 14.1324ZM15.5752 19.4793V20.3031L16.306 19.9228L19.8775 18.0645L20.727 17.6225L19.8788 17.178L16.3072 15.3067L15.5752 14.9231V15.7496V19.4793Z" fill="white"/>
<path d="M17.4383 13.5903H17.4369H17.4311L17.4079 13.5904L17.3175 13.5906C17.2386 13.5909 17.1236 13.5914 16.9797 13.5924C16.6919 13.5945 16.289 13.5987 15.8286 13.6071C14.9093 13.6238 13.7696 13.6572 12.861 13.723C12.8337 13.7262 12.8057 13.7291 12.7772 13.732C12.5009 13.7608 12.1721 13.7951 11.8508 14.1324L11.8441 14.1393C11.7387 14.2458 11.6352 14.4699 11.5575 14.7365C11.522 14.8582 11.4971 14.97 11.4811 15.0513C11.4732 15.0917 11.4676 15.1239 11.4641 15.1451L11.4604 15.1683L11.4601 15.1706L11.4594 15.1765L11.4554 15.2104C11.4519 15.2405 11.4468 15.2851 11.4407 15.3423C11.4284 15.4566 11.412 15.6206 11.3956 15.8177C11.3627 16.2131 11.3302 16.7353 11.3302 17.2529V18.2585C11.3302 18.7765 11.3621 19.299 11.3944 19.6945C11.4105 19.8916 11.4266 20.0558 11.4386 20.1702C11.4446 20.2273 11.4496 20.272 11.453 20.3021L11.457 20.336L11.4575 20.3407L11.4577 20.3418L11.4614 20.3651C11.465 20.3864 11.4706 20.4186 11.4787 20.459C11.4949 20.5405 11.52 20.6525 11.5557 20.7744C11.6339 21.0414 11.7375 21.2663 11.8426 21.3732L11.8482 21.379C12.1292 21.674 12.4387 21.7151 12.7636 21.7582C12.8464 21.7692 12.9303 21.7803 13.0149 21.7958C13.5311 21.843 14.6171 21.8753 15.6006 21.8956C16.0949 21.9058 16.5564 21.9128 16.8943 21.9173C17.0633 21.9195 17.2013 21.9211 17.297 21.9222L17.4074 21.9233L17.4362 21.9236L17.4422 21.9237H17.4434L17.448 21.9237L17.4713 21.9236L17.5618 21.9232C17.6408 21.9228 17.756 21.9221 17.9 21.9208C18.188 21.9183 18.5914 21.9135 19.0522 21.9046C19.9722 21.8869 21.1128 21.853 22.0219 21.7884C22.0492 21.7852 22.0771 21.7823 22.1055 21.7794C22.3818 21.7506 22.7106 21.7163 23.0318 21.379L23.0385 21.3721C23.1443 21.2652 23.2483 21.0406 23.3267 20.7738C23.3625 20.6521 23.3878 20.5402 23.404 20.4588C23.412 20.4184 23.4177 20.3862 23.4212 20.3649L23.425 20.3417L23.4251 20.3406L23.4257 20.3359L23.4296 20.3021C23.4331 20.2721 23.4381 20.2275 23.4441 20.1704C23.4561 20.0563 23.4721 19.8924 23.4882 19.6955C23.5205 19.3003 23.5524 18.7778 23.5524 18.2585V17.2529C23.5524 16.7349 23.5205 16.2124 23.4882 15.8169C23.4721 15.6198 23.4561 15.4556 23.444 15.3412C23.438 15.2841 23.4331 15.2394 23.4296 15.2093L23.4257 15.1754L23.4251 15.1707L23.425 15.1697L23.4212 15.1465C23.4177 15.1252 23.412 15.093 23.404 15.0526C23.3878 14.9712 23.3625 14.8593 23.3267 14.7376C23.2483 14.4708 23.1443 14.2462 23.0385 14.1393L23.0318 14.1324C22.7106 13.7951 22.3818 13.7608 22.1055 13.732C22.0769 13.7291 22.0489 13.7262 22.0216 13.723C21.113 13.6572 19.9734 13.6238 19.054 13.6071C18.5936 13.5987 18.1907 13.5945 17.9029 13.5924C17.7591 13.5914 17.6441 13.5909 17.5651 13.5906L17.4747 13.5904L17.4515 13.5903H17.4457H17.4439M17.4383 13.5903L17.4387 13.0903M17.4383 13.5903H17.4439M17.4439 13.5903V13.0903M15.5752 19.4793V20.3031L16.306 19.9228L19.8775 18.0645L20.727 17.6225L19.8788 17.178L16.3072 15.3067L15.5752 14.9231V15.7496V19.4793Z" stroke="white"/>
</g>
</g>
</g>
<defs>
<clipPath id="clip0_1_629">
<rect width="14" height="10" fill="white" transform="translate(10.63 12.4902)"/>
</clipPath>
<clipPath id="clip1_1_629">
<rect width="14" height="10" fill="white" transform="translate(10.63 12.4902)"/>
</clipPath>
<clipPath id="clip2_1_629">
<rect width="14" height="10" fill="white" transform="translate(10.63 12.4902)"/>
</clipPath>
</defs>
</svg>
