<svg width="36" height="35" viewBox="0 0 36 35" fill="none" xmlns="http://www.w3.org/2000/svg">
<rect x="0.130005" y="-0.00976562" width="35" height="35" rx="4" fill="#2A2A2A"/>
<g clip-path="url(#clip0_1_642)">
<g clip-path="url(#clip1_1_642)">
<path d="M21.1394 13.3094C21.0813 13.3482 21.036 13.4034 21.0094 13.4678C20.9826 13.5323 20.9756 13.6034 20.9893 13.672L21.1394 13.3094ZM21.1394 13.3094C21.1975 13.2706 21.2657 13.2499 21.3356 13.2499C21.4292 13.2499 21.5191 13.2871 21.5853 13.3533C21.6515 13.4195 21.6887 13.5093 21.6887 13.603C21.6887 13.6728 21.668 13.7411 21.6292 13.7992C21.5903 13.8573 21.5352 13.9025 21.4708 13.9292M21.1394 13.3094L21.4708 13.9292M21.4708 13.9292C21.4065 13.9559 21.3352 13.963 21.2667 13.9494L21.4708 13.9292ZM17.5411 14.2523C16.919 14.2535 16.3101 14.4391 15.7934 14.7857C15.2767 15.1322 14.8742 15.6241 14.637 16.1993C14.3997 16.7745 14.3383 17.4071 14.4604 18.0171C14.5825 18.6272 14.8827 19.1874 15.3231 19.6268C15.7635 20.0663 16.3243 20.3656 16.9345 20.4864C17.5448 20.6073 18.1773 20.5447 18.7521 20.3063C19.3268 20.068 19.8179 19.6646 20.1634 19.1472C20.509 18.6298 20.6934 18.0216 20.6934 17.3994C20.6942 16.9855 20.6132 16.5746 20.455 16.1921C20.2969 15.8097 20.0645 15.4622 19.7716 15.1698M17.5411 14.2523L19.7716 15.1698M17.5411 14.2523C17.955 14.2507 18.3652 14.3309 18.748 14.4884C19.1307 14.6458 19.4786 14.8774 19.7716 15.1698M24.106 14.4821L24.1062 14.4903L24.1067 14.4986C24.1484 15.2355 24.1486 15.4626 24.1486 17.3994C24.1486 18.3621 24.1379 18.9015 24.1274 19.2931C24.125 19.382 24.1226 19.4643 24.1203 19.5427C24.1125 19.8062 24.106 20.0278 24.1059 20.3224C24.0928 20.8549 23.9929 21.3816 23.8101 21.882C23.6572 22.2872 23.4167 22.6538 23.1058 22.9557L23.1001 22.9612L23.0946 22.967C22.7952 23.2769 22.4293 23.5146 22.0246 23.6622L22.019 23.6643C21.5196 23.853 20.9916 23.9552 20.4579 23.9662L20.4489 23.9664L20.44 23.9669C19.7031 24.0086 19.476 24.0088 17.5392 24.0088C15.6024 24.0088 15.3753 24.0086 14.6384 23.9669L14.6294 23.9664L14.6205 23.9662C14.0867 23.9552 13.5587 23.853 13.0594 23.6642L13.0557 23.6629C12.6504 23.5133 12.2838 23.2751 11.9824 22.9656L11.9771 22.9601L11.9716 22.9548C11.6617 22.6554 11.424 22.2895 11.2763 21.8847L11.2743 21.8792C11.0855 21.3798 10.9834 20.8518 10.9724 20.3181L10.9722 20.3091L10.9717 20.3002C10.93 19.5633 10.9298 19.3362 10.9298 17.3994C10.9298 15.4626 10.93 15.2355 10.9717 14.4986L10.9722 14.4897L10.9724 14.4807C10.9834 13.9469 11.0855 13.419 11.2743 12.9196L11.2763 12.9141C11.424 12.5093 11.6617 12.1434 11.9716 11.844L11.9771 11.8387L11.9824 11.8332C12.2838 11.5237 12.6504 11.2855 13.0557 11.1359L13.0593 11.1345C13.5587 10.9458 14.0867 10.8436 14.6205 10.8326L14.6294 10.8324L14.6384 10.8319C15.3753 10.7902 15.6024 10.79 17.5392 10.79C19.476 10.79 19.7031 10.7902 20.44 10.8319L20.4489 10.8324L20.4579 10.8326C20.9916 10.8436 21.5196 10.9458 22.019 11.1345L22.0245 11.1366C22.4293 11.2842 22.7952 11.5219 23.0946 11.8318L23.1044 11.8417C23.4146 12.1453 23.6554 12.5124 23.8105 12.9178C23.9937 13.4196 24.0935 13.948 24.106 14.4821ZM23.5539 21.7378C23.7269 21.2638 23.8191 20.7633 23.8261 20.2588C23.8619 19.5416 23.8689 19.2624 23.8689 17.3994C23.8689 15.538 23.8619 15.2577 23.8261 14.5418C23.8227 14.0272 23.7307 13.5169 23.5542 13.0334L23.5517 13.0266L23.549 13.0198C23.4059 12.6609 23.1869 12.3372 22.9069 12.071C22.6226 11.7655 22.2707 11.5306 21.8793 11.3853L21.8768 11.3844C21.4036 11.2116 20.9048 11.1197 20.4011 11.1126C19.6839 11.0697 19.3974 11.0697 17.5612 11.0697H17.5392C16.6 11.0697 16.0622 11.0804 15.669 11.0912C15.5738 11.0939 15.4882 11.0964 15.4081 11.0988C15.1553 11.1065 14.9585 11.1124 14.6954 11.1124L14.6915 11.1124C14.1743 11.1165 13.6615 11.2082 13.1749 11.3838L13.1598 11.3892L13.1451 11.3956C12.7887 11.5507 12.4696 11.7801 12.209 12.0682C11.9187 12.3293 11.6899 12.6518 11.5395 13.0124L11.5359 13.0211L11.5326 13.0299C11.3523 13.5128 11.2574 14.0233 11.2523 14.5386C11.2095 15.255 11.2095 15.5422 11.2095 17.3774V17.3994C11.2095 18.3386 11.2202 18.8764 11.231 19.2696C11.2336 19.3648 11.2362 19.4504 11.2386 19.5305C11.2462 19.7832 11.2522 19.9801 11.2522 20.2431V20.251L11.2524 20.2588C11.2687 20.7778 11.3759 21.2898 11.5691 21.7716C11.7043 22.1468 11.923 22.4865 12.2087 22.7648C12.4765 23.0407 12.7978 23.2591 13.153 23.4065L13.1687 23.413L13.1848 23.4184C13.6769 23.5845 14.1937 23.6657 14.7131 23.6582C15.4249 23.7006 15.7157 23.7006 17.5456 23.7006H17.5676C19.4306 23.7006 19.7098 23.6936 20.427 23.6578C20.9315 23.6509 21.4312 23.559 21.9052 23.3859L21.9104 23.384C22.284 23.2429 22.6227 23.0227 22.9032 22.7383C23.1927 22.458 23.415 22.116 23.5539 21.7378ZM15.9461 19.7836C16.4176 20.0986 16.972 20.2668 17.5392 20.2668C17.9157 20.2668 18.2886 20.1926 18.6365 20.0485C18.9844 19.9044 19.3005 19.6932 19.5668 19.427C19.833 19.1607 20.0442 18.8446 20.1883 18.4967C20.3324 18.1488 20.4066 17.776 20.4066 17.3994C20.4066 16.8323 20.2384 16.2779 19.9234 15.8064C19.6083 15.3348 19.1605 14.9673 18.6365 14.7503C18.1125 14.5332 17.536 14.4764 16.9798 14.5871C16.4236 14.6977 15.9126 14.9708 15.5116 15.3718C15.1106 15.7729 14.8375 16.2838 14.7269 16.84C14.6162 17.3962 14.673 17.9728 14.89 18.4967C15.1071 19.0207 15.4746 19.4685 15.9461 19.7836Z" stroke="white"/>
</g>
</g>
<defs>
<clipPath id="clip0_1_642">
<rect width="16" height="16" fill="white" transform="translate(9.63 9.49023)"/>
</clipPath>
<clipPath id="clip1_1_642">
<rect width="16" height="16" fill="white" transform="translate(9.63 9.49023)"/>
</clipPath>
</defs>
</svg>
