<svg width="36" height="35" viewBox="0 0 36 35" fill="none" xmlns="http://www.w3.org/2000/svg">
<rect x="0.130005" y="-0.00976562" width="35" height="35" rx="4" fill="#2A2A2A"/>
<g clip-path="url(#clip0_1_668)">
<g clip-path="url(#clip1_1_668)">
<g clip-path="url(#clip2_1_668)">
<path d="M26.005 17.6231C26.005 16.6044 25.1746 15.7776 24.1514 15.7776C23.6472 15.7776 23.2024 15.9696 22.8762 16.2944C21.6157 15.3938 19.8659 14.8032 17.9382 14.7294L18.7835 10.7875L21.5267 11.3633C21.5564 12.0572 22.1347 12.6182 22.8465 12.6182C23.5731 12.6182 24.1662 12.0276 24.1662 11.3042C24.1662 10.5808 23.5731 9.99023 22.8465 9.99023C22.3275 9.99023 21.8826 10.2855 21.675 10.7284L18.6055 10.0788C18.5165 10.0641 18.4276 10.0788 18.3534 10.1231C18.2793 10.1674 18.2348 10.2412 18.2051 10.3298L17.2709 14.7294C15.2987 14.7885 13.5341 15.3642 12.2588 16.2944C11.9326 15.9843 11.4729 15.7776 10.9836 15.7776C9.96041 15.7776 9.13 16.6044 9.13 17.6231C9.13 18.3761 9.57486 19.0109 10.2273 19.3062C10.1977 19.4833 10.1828 19.6753 10.1828 19.8672C10.1828 22.7018 13.4896 24.9902 17.5823 24.9902C21.675 24.9902 24.9818 22.7018 24.9818 19.8672C24.9818 19.6753 24.967 19.4981 24.9373 19.3209C25.5453 19.0257 26.005 18.3761 26.005 17.6231ZM13.3265 18.9371C13.3265 18.2137 13.9197 17.6231 14.6463 17.6231C15.3729 17.6231 15.966 18.2137 15.966 18.9371C15.966 19.6605 15.3729 20.251 14.6463 20.251C13.9197 20.251 13.3265 19.6605 13.3265 18.9371ZM20.6963 22.4065C19.7918 23.3071 18.0717 23.3662 17.5675 23.3662C17.0633 23.3662 15.3284 23.2924 14.4387 22.4065C14.3052 22.2737 14.3052 22.0522 14.4387 21.9193C14.5721 21.7865 14.7945 21.7865 14.928 21.9193C15.4915 22.4804 16.7074 22.687 17.5823 22.687C18.4572 22.687 19.6583 22.4804 20.2367 21.9193C20.3701 21.7865 20.5925 21.7865 20.726 21.9193C20.8298 22.067 20.8298 22.2737 20.6963 22.4065ZM20.4591 20.251C19.7325 20.251 19.1393 19.6605 19.1393 18.9371C19.1393 18.2137 19.7325 17.6231 20.4591 17.6231C21.1857 17.6231 21.7788 18.2137 21.7788 18.9371C21.7788 19.6605 21.1857 20.251 20.4591 20.251Z" fill="white"/>
</g>
</g>
</g>
<defs>
<clipPath id="clip0_1_668">
<rect width="17" height="15" fill="white" transform="translate(9.13 9.99023)"/>
</clipPath>
<clipPath id="clip1_1_668">
<rect width="17" height="15" fill="white" transform="translate(9.13 9.99023)"/>
</clipPath>
<clipPath id="clip2_1_668">
<rect width="17" height="15" fill="white" transform="translate(9.13 9.99023)"/>
</clipPath>
</defs>
</svg>
