<svg width="36" height="35" viewBox="0 0 36 35" fill="none" xmlns="http://www.w3.org/2000/svg">
<rect x="0.130005" y="-0.00976562" width="35" height="35" rx="4" fill="#2A2A2A"/>
<g clip-path="url(#clip0_1_616)">
<g clip-path="url(#clip1_1_616)">
<g clip-path="url(#clip2_1_616)">
<path d="M18.5183 16.0006H22.0183L21.6295 17.5562H18.5183V24.5561H16.9628V17.5562H13.8517V16.0006H16.9628V14.5446C16.9628 13.1578 17.1075 12.6546 17.3781 12.1475C17.6434 11.6464 18.0531 11.2367 18.5541 10.9715C19.0612 10.7008 19.5645 10.5562 20.9512 10.5562C21.3572 10.5562 21.7135 10.595 22.0183 10.6728V12.1117H20.9512C19.9215 12.1117 19.608 12.1724 19.2883 12.3435C19.0519 12.4695 18.8761 12.6453 18.7501 12.8817C18.579 13.2014 18.5183 13.5148 18.5183 14.5446V16.0006Z" fill="white" stroke="white" stroke-width="0.8"/>
</g>
</g>
</g>
<defs>
<clipPath id="clip0_1_616">
<rect width="10" height="15" fill="white" transform="translate(12.63 9.99023)"/>
</clipPath>
<clipPath id="clip1_1_616">
<rect width="10" height="15" fill="white" transform="translate(12.63 9.99023)"/>
</clipPath>
<clipPath id="clip2_1_616">
<rect width="10" height="15" fill="white" transform="translate(12.63 9.99023)"/>
</clipPath>
</defs>
</svg>
