<svg width="154" height="29" viewBox="0 0 154 29" fill="none" xmlns="http://www.w3.org/2000/svg">
<g clip-path="url(#clip0_1_698)">
<g clip-path="url(#clip1_1_698)">
<g clip-path="url(#clip2_1_698)">
<path d="M139.58 5.11164C136.861 5.11164 134.569 6.06877 132.706 7.98303C130.843 9.89729 129.912 12.2165 129.912 14.9406C129.912 17.6648 130.843 19.984 132.706 21.8982C134.569 23.7757 136.861 24.7144 139.58 24.7144C142.3 24.7144 144.592 23.7757 146.455 21.8982C148.318 19.984 149.249 17.6648 149.249 14.9406C149.249 12.2165 148.318 9.89729 146.455 7.98303C144.592 6.06877 142.3 5.11164 139.58 5.11164ZM139.58 28.911C135.482 28.911 132.054 27.5858 129.297 24.9353C126.54 22.2479 125.161 18.9164 125.161 14.9406C125.161 10.9649 126.54 7.65172 129.297 5.0012C132.054 2.31387 135.482 0.970215 139.58 0.970215C143.679 0.970215 147.107 2.31387 149.864 5.0012C152.621 7.65172 154 10.9649 154 14.9406C154 18.9164 152.603 22.2295 149.808 24.88C147.014 27.5674 143.604 28.911 139.58 28.911Z" fill="white"/>
<path d="M116.1 6.10969H100.675V1.96826H122.527V5.50227L106.599 24.6633V24.7737H122.751V28.9704H100.172V25.4363L116.1 6.22012V6.10969Z" fill="white"/>
<path d="M86.7505 28.9704H81.6087L70.5986 1.96826H75.7963L84.1796 22.1232L92.6188 1.96826H97.7606L86.7505 28.9704Z" fill="white"/>
<path d="M63.5488 1.96826H68.1876V28.9704H63.5488V1.96826Z" fill="white"/>
<path d="M38 1.96826H42.6388V15.1104L44 13.6814L55.1579 1.96826H60.9703L50.0161 13.7851L61.138 28.9704H55.6609L46.6069 17.1535L44 13.6814L42.6388 15.1104V21.4054V28.9704H38V1.96826Z" fill="white"/>
<path d="M26 0.970215H2C0.89543 0.970215 0 1.86565 0 2.97021V26.9702C0 28.0748 0.89543 28.9702 2 28.9702H26C27.1046 28.9702 28 28.0748 28 26.9702V2.97021C28 1.86565 27.1046 0.970215 26 0.970215Z" fill="#F08F64"/>
<mask id="mask0_1_698" style="mask-type:alpha" maskUnits="userSpaceOnUse" x="0" y="0" width="28" height="29">
<path d="M26 0.970215H2C0.89543 0.970215 0 1.86565 0 2.97021V26.9702C0 28.0748 0.89543 28.9702 2 28.9702H26C27.1046 28.9702 28 28.0748 28 26.9702V2.97021C28 1.86565 27.1046 0.970215 26 0.970215Z" fill="#D9D9D9"/>
</mask>
<g mask="url(#mask0_1_698)">
<path d="M8.24383 6.97021H4V32.1702H8.24383V25.1101V19.2352V6.97021Z" fill="black"/>
<path d="M25.0146 6.97021H19.697L10.0557 17.2949C9.72723 17.6467 9.69593 18.1826 9.98122 18.5702L11.8741 21.142L20.1572 32.1702H25.168L14.993 17.9984L25.0146 6.97021Z" fill="black"/>
</g>
</g>
</g>
</g>
<defs>
<clipPath id="clip0_1_698">
<rect width="154" height="28" fill="white" transform="translate(0 0.970215)"/>
</clipPath>
<clipPath id="clip1_1_698">
<rect width="154" height="28" fill="white" transform="translate(0 0.970215)"/>
</clipPath>
<clipPath id="clip2_1_698">
<rect width="154" height="28" fill="white" transform="translate(0 0.970215)"/>
</clipPath>
</defs>
</svg>
