<svg width="32" height="32" viewBox="0 0 32 32" fill="none" xmlns="http://www.w3.org/2000/svg">
<rect width="32" height="32" rx="4" fill="#1F1F1F"/>
<path d="M4 19.9476L5.3783 18.5693C5.56952 18.7606 5.82406 18.8662 6.09351 18.8662C6.65109 18.8662 7.10552 18.4116 7.10552 17.8542V11.6828L9.05496 11.062V17.8542C9.05496 18.645 8.74712 19.3889 8.18701 19.9476C7.62707 20.5064 6.8845 20.8156 6.09351 20.8156C5.3026 20.8156 4.55876 20.5076 4 19.9476Z" fill="#FFFEFA"/>
<path d="M12.9534 20.4122C12.3697 20.165 11.8458 19.8124 11.3962 19.3629C10.9468 18.9134 10.5941 18.3894 10.347 17.8058C10.0912 17.2011 9.96204 16.5591 9.96204 15.8985C9.96204 15.238 10.0912 14.5959 10.347 13.9913C10.5941 13.4077 10.9468 12.8836 11.3962 12.4341C11.8458 11.9847 12.3697 11.632 12.9534 11.3849C13.5581 11.1291 14.2001 10.9999 14.8606 10.9999C15.5212 10.9999 16.1631 11.1291 16.7679 11.3849C17.3516 11.632 17.8755 11.9847 18.3249 12.4341C18.7746 12.8836 19.1272 13.4077 19.3743 13.9913C19.6301 14.5959 19.7592 15.238 19.7592 15.8985C19.7592 16.5591 19.6301 17.2011 19.3743 17.8058C19.1272 18.3894 18.7746 18.9134 18.3249 19.3629C17.8755 19.8124 17.3516 20.165 16.7679 20.4122C16.1631 20.668 15.5212 20.7971 14.8606 20.7971C14.2001 20.7971 13.5581 20.668 12.9534 20.4122ZM12.7745 13.8137C12.217 14.3712 11.9103 15.1113 11.9103 15.8998C11.9103 16.6883 12.217 17.4283 12.7745 17.9858C13.3321 18.5434 14.0721 18.8501 14.8606 18.8501C15.6492 18.8501 16.3891 18.5434 16.9467 17.9858C17.5041 17.4283 17.811 16.6883 17.811 15.8998C17.811 15.1113 17.5041 14.3712 16.9467 13.8137C16.3891 13.2562 15.6478 12.9495 14.8606 12.9495C14.0734 12.9495 13.3321 13.2562 12.7745 13.8137Z" fill="#FFFEFA"/>
<path d="M25.6556 11.062L23.4702 14.2954L21.2736 11.062H18.9752L22.221 15.9034L18.9318 20.7474H21.2352L23.4529 17.5127L23.4556 17.5167L27.892 11.062H25.6556Z" fill="#FFFEFA"/>
<path d="M26.3733 18.3608H24.0344L25.6707 20.7474H28L26.3733 18.3608Z" fill="#FFFEFA"/>
</svg>
