<svg width="16" height="17" viewBox="0 0 16 17" fill="none" xmlns="http://www.w3.org/2000/svg">
<g clip-path="url(#clip0_6218_2348)">
<path d="M16 16.3059V10.3899C16 7.21993 14.308 5.74493 12.052 5.74493C10.2315 5.74493 9.4155 6.74643 8.961 7.44943V5.98743H5.531C5.5765 6.95593 5.531 16.3059 5.531 16.3059H8.961V10.5434C8.961 10.2359 8.983 9.92743 9.074 9.70743C9.3215 9.09093 9.886 8.45293 10.833 8.45293C12.0745 8.45293 12.5705 9.39893 12.5705 10.7859V16.3064L16 16.3059ZM1.9175 4.57893C3.113 4.57893 3.8585 3.78593 3.8585 2.79543C3.8365 1.78343 3.1135 1.01343 1.9405 1.01343C0.7675 1.01343 0 1.78293 0 2.79543C0 3.78593 0.7445 4.57893 1.896 4.57893H1.9175ZM3.6325 16.3059V5.98743H0.203V16.3059H3.6325Z" fill="white"/>
</g>
<defs>
<clipPath id="clip0_6218_2348">
<rect width="16" height="16" fill="white" transform="translate(0 0.660156)"/>
</clipPath>
</defs>
</svg>
